<svg xmlns="http://www.w3.org/2000/svg" xmlns:xlink="http://www.w3.org/1999/xlink" preserveAspectRatio="xMidYMid" width="96" height="90" viewBox="0 0 96 90">
  <defs>
    <style>
      .cls-1 {
        fill: #4ca334;
        fill-rule: evenodd;
      }
    </style>
  </defs>
  <path d="M85.854,77.297 L49.912,77.297 L49.912,79.817 L61.077,79.817 C64.776,79.817 67.786,82.832 67.786,86.537 L67.786,88.084 C67.786,89.142 66.930,89.999 65.874,89.999 L30.126,89.999 C29.070,89.999 28.214,89.142 28.214,88.084 L28.214,86.537 C28.214,82.832 31.224,79.817 34.923,79.817 L46.088,79.817 L46.088,77.297 L10.146,77.297 C4.551,77.297 -0.000,72.738 -0.000,67.134 L-0.000,24.286 C-0.000,18.683 4.551,14.124 10.146,14.124 L71.340,14.124 L81.616,3.830 L77.716,3.830 C76.660,3.830 75.803,2.972 75.803,1.915 C75.803,0.857 76.660,-0.001 77.716,-0.001 L86.044,-0.001 C87.100,-0.001 87.956,0.857 87.956,1.915 L87.956,10.256 C87.956,11.314 87.100,12.172 86.044,12.172 C84.987,12.172 84.131,11.314 84.131,10.256 L84.131,6.728 L76.749,14.124 L85.854,14.124 C91.449,14.124 96.000,18.683 96.000,24.286 L96.000,67.134 C96.000,72.738 91.449,77.297 85.854,77.297 ZM34.923,83.648 C33.458,83.648 32.244,84.749 32.062,86.168 L63.938,86.168 C63.756,84.749 62.542,83.648 61.077,83.648 L34.923,83.648 ZM92.175,24.286 C92.175,20.795 89.340,17.954 85.854,17.954 L72.924,17.954 L45.472,45.454 C44.725,46.201 43.514,46.201 42.768,45.454 L35.034,37.707 L21.529,51.236 C21.156,51.609 20.666,51.797 20.177,51.797 C19.687,51.797 19.198,51.609 18.824,51.236 C18.078,50.487 18.078,49.274 18.824,48.526 L33.682,33.644 C34.429,32.896 35.640,32.896 36.387,33.644 L44.120,41.390 L67.515,17.954 L10.145,17.954 C6.660,17.954 3.825,20.795 3.825,24.286 L3.825,62.564 L92.175,62.564 L92.175,24.286 ZM92.175,66.395 L3.825,66.395 L3.825,67.134 C3.825,70.625 6.660,73.465 10.146,73.465 L85.854,73.465 C89.340,73.465 92.175,70.626 92.175,67.134 L92.175,66.395 ZM14.282,53.077 C15.029,52.329 16.240,52.329 16.987,53.077 C17.734,53.825 17.734,55.038 16.987,55.786 L16.419,56.355 C16.046,56.728 15.556,56.915 15.067,56.915 C14.577,56.915 14.088,56.728 13.714,56.355 C12.968,55.606 12.968,54.393 13.715,53.646 L14.282,53.077 Z" class="cls-1"/>
</svg>
