<svg xmlns="http://www.w3.org/2000/svg" xmlns:xlink="http://www.w3.org/1999/xlink" preserveAspectRatio="xMidYMid" width="90" height="90" viewBox="0 0 90 90">
  <defs>
    <style>
      .cls-1 {
        fill: #4ca334;
        fill-rule: evenodd;
      }
    </style>
  </defs>
  <path d="M87.610,42.438 L43.803,86.248 L63.747,86.249 C64.783,86.249 65.622,87.088 65.622,88.124 C65.622,89.159 64.783,89.999 63.747,89.999 L36.668,89.998 C36.665,89.998 36.663,89.999 36.661,89.999 C36.658,89.999 36.656,89.998 36.653,89.998 L26.249,89.998 C25.214,89.998 24.374,89.159 24.374,88.123 C24.374,87.088 25.214,86.248 26.249,86.248 L29.519,86.248 L5.902,62.630 C5.901,62.629 5.901,62.629 5.901,62.629 C5.900,62.629 5.900,62.627 5.900,62.627 L2.385,59.113 C0.847,57.576 0.000,55.524 0.000,53.336 C0.000,51.149 0.847,49.098 2.385,47.559 L47.558,2.384 C49.096,0.846 51.148,-0.001 53.335,-0.001 C55.522,-0.001 57.573,0.846 59.112,2.385 L87.610,30.884 C90.795,34.069 90.795,39.253 87.610,42.438 ZM84.959,33.535 L69.255,17.831 L25.873,61.216 C25.507,61.582 25.027,61.765 24.547,61.765 C24.067,61.765 23.587,61.582 23.221,61.216 C22.489,60.483 22.489,59.296 23.221,58.564 L66.603,15.180 L56.460,5.036 C55.630,4.206 54.520,3.749 53.335,3.749 C52.149,3.749 51.039,4.206 50.209,5.036 L5.037,50.210 C4.207,51.041 3.750,52.151 3.750,53.336 C3.750,54.522 4.207,55.632 5.037,56.462 L7.226,58.651 L50.608,15.267 C51.340,14.534 52.527,14.534 53.259,15.267 C53.992,15.999 53.992,17.186 53.259,17.918 L9.878,61.303 L33.536,84.962 C34.364,85.790 35.471,86.247 36.653,86.248 L36.668,86.248 C37.850,86.247 38.958,85.790 39.786,84.962 L84.959,39.787 C86.682,38.063 86.682,35.259 84.959,33.535 ZM68.904,44.700 C68.537,45.065 68.058,45.249 67.578,45.249 C67.098,45.249 66.618,45.066 66.252,44.700 L60.949,39.397 C60.597,39.045 60.400,38.568 60.400,38.071 C60.400,37.573 60.597,37.097 60.949,36.745 L68.904,28.790 C69.255,28.439 69.732,28.241 70.229,28.241 C70.727,28.241 71.204,28.439 71.555,28.790 L76.858,34.094 C77.590,34.825 77.590,36.013 76.858,36.745 L68.904,44.700 ZM70.229,32.767 L64.926,38.071 L67.578,40.723 L72.881,35.419 L70.229,32.767 ZM47.568,66.037 C47.202,66.403 46.722,66.585 46.242,66.585 C45.763,66.585 45.283,66.403 44.917,66.037 C44.185,65.304 44.185,64.117 44.917,63.385 L45.712,62.590 C46.444,61.857 47.632,61.857 48.363,62.590 C49.096,63.322 49.096,64.509 48.363,65.241 L47.568,66.037 ZM31.441,71.558 C31.075,71.924 30.595,72.106 30.115,72.106 C29.636,72.106 29.156,71.924 28.790,71.558 C28.057,70.825 28.057,69.638 28.790,68.906 L43.543,54.152 C44.276,53.420 45.463,53.420 46.195,54.152 C46.927,54.884 46.927,56.071 46.195,56.803 L31.441,71.558 ZM40.144,68.158 C40.876,67.426 42.063,67.426 42.795,68.158 C43.527,68.890 43.527,70.077 42.795,70.810 L36.744,76.861 C36.378,77.227 35.898,77.410 35.418,77.410 C34.939,77.410 34.459,77.227 34.092,76.861 C33.360,76.128 33.360,74.942 34.092,74.209 L40.144,68.158 ZM20.702,66.387 C20.336,66.753 19.856,66.935 19.377,66.935 C18.897,66.935 18.417,66.753 18.051,66.387 C17.319,65.654 17.319,64.467 18.051,63.735 L18.846,62.940 C19.578,62.207 20.765,62.207 21.498,62.940 C22.230,63.672 22.230,64.859 21.498,65.591 L20.702,66.387 ZM55.778,10.096 C56.510,9.364 57.698,9.364 58.430,10.096 C59.162,10.828 59.162,12.015 58.430,12.748 L57.635,13.543 C57.269,13.910 56.789,14.093 56.309,14.093 C55.829,14.093 55.350,13.910 54.984,13.544 C54.251,12.812 54.251,11.625 54.983,10.892 L55.778,10.096 Z" class="cls-1"/>
</svg>
