<svg xmlns="http://www.w3.org/2000/svg" xmlns:xlink="http://www.w3.org/1999/xlink" preserveAspectRatio="xMidYMid" width="90" height="90" viewBox="0 0 90 90">
  <defs>
    <style>
      .cls-1 {
        fill: #4ca334;
        fill-rule: evenodd;
      }
    </style>
  </defs>
  <path d="M89.981,46.306 C89.953,47.278 89.156,48.047 88.190,48.047 C88.173,48.047 88.156,48.046 88.138,48.046 C87.148,48.018 86.369,47.193 86.397,46.203 C86.409,45.805 86.414,45.400 86.414,44.999 C86.414,44.009 87.217,43.206 88.207,43.206 C89.197,43.206 90.000,44.009 90.000,44.999 C90.000,45.434 89.994,45.873 89.981,46.306 ZM43.745,61.596 C44.487,61.596 45.115,62.395 45.115,63.308 C45.115,64.223 44.487,65.079 43.745,65.079 L23.416,65.079 C22.674,65.079 21.646,64.507 21.646,63.595 L21.646,58.056 C21.646,48.577 40.947,44.408 40.947,34.416 C40.947,30.818 38.491,26.878 33.238,26.878 C29.298,26.878 26.329,29.106 26.329,33.616 C26.329,34.358 25.643,35.158 24.330,35.158 C23.188,35.158 22.617,34.530 22.617,32.817 C22.617,27.335 27.299,23.338 33.352,23.338 C39.919,23.338 44.715,28.135 44.715,34.301 C44.715,46.578 25.529,50.461 25.529,58.056 L25.529,61.596 L43.745,61.596 ZM63.273,39.212 C64.186,39.212 65.157,39.668 65.157,40.639 L65.157,51.660 L68.298,51.660 C69.268,51.660 69.725,52.574 69.725,53.430 C69.725,54.344 69.154,55.258 68.298,55.258 L65.157,55.258 L65.157,63.594 C65.157,64.565 64.187,65.079 63.273,65.079 C62.302,65.079 61.389,64.565 61.389,63.594 L61.389,55.258 L46.885,55.258 C45.914,55.258 45.400,54.572 45.400,53.715 C45.400,53.373 45.458,53.030 45.629,52.745 L59.961,24.480 C60.361,23.681 61.046,23.337 61.731,23.337 C62.473,23.337 63.559,23.966 63.559,24.880 C63.559,25.108 63.501,25.337 63.387,25.622 L50.197,51.660 L61.389,51.660 L61.389,40.639 C61.389,39.669 62.302,39.212 63.273,39.212 ZM87.705,51.847 C88.676,52.044 89.304,52.990 89.107,53.960 C87.080,63.991 81.596,73.129 73.665,79.689 C65.628,86.338 55.448,89.999 45.000,89.999 C32.980,89.999 21.680,85.318 13.180,76.819 C4.681,68.320 -0.000,57.019 -0.000,44.999 C-0.000,32.979 4.681,21.679 13.180,13.179 C21.680,4.680 32.980,-0.001 45.000,-0.001 C56.746,-0.001 68.004,4.609 76.375,12.745 L76.375,8.026 C76.375,7.035 77.177,6.233 78.167,6.233 C79.158,6.233 79.960,7.035 79.960,8.026 L79.960,17.031 C79.960,18.021 79.158,18.824 78.167,18.824 L69.162,18.824 C68.172,18.824 67.370,18.021 67.370,17.031 C67.370,16.040 68.172,15.238 69.162,15.238 L73.796,15.238 C66.101,7.798 55.773,3.585 45.000,3.585 C22.164,3.585 3.586,22.163 3.586,44.999 C3.586,67.835 22.164,86.413 45.000,86.413 C64.637,86.413 81.709,72.466 85.593,53.249 C85.789,52.278 86.735,51.651 87.705,51.847 Z" class="cls-1"/>
</svg>
